<svg width="492" height="492" viewBox="0 0 492 492" fill="none" xmlns="http://www.w3.org/2000/svg">
<path d="M484.132 124.986L468.016 108.758C462.944 103.69 456.196 100.898 448.984 100.898C441.776 100.898 435.02 103.69 429.948 108.758L246.108 292.606L62.056 108.554C56.992 103.486 50.236 100.698 43.028 100.698C35.82 100.698 29.06 103.486 23.992 108.554L7.872 124.682C-2.624 135.17 -2.624 152.254 7.872 162.742L227.008 382.666C232.072 387.73 238.82 391.298 246.092 391.298H246.176C253.388 391.298 260.136 387.726 265.2 382.666L484.132 163.338C489.204 158.274 491.988 151.322 491.996 144.114C491.996 136.902 489.204 130.046 484.132 124.986Z" fill="black"/>
</svg>
